<svg width="26" height="21" viewBox="0 0 26 21" fill="none" xmlns="http://www.w3.org/2000/svg">
<mask id="path-1-inside-1_510_1149" fill="white">
<path d="M1.21063 8.66958L24.2684 0.104824C25.3386 -0.267641 26.2733 0.356334 25.9265 1.91531L25.9285 1.91339L22.0025 19.7322C21.7115 20.9955 20.9323 21.3027 19.8422 20.7075L13.8635 16.4625L10.9798 19.1389C10.6609 19.4461 10.3919 19.7053 9.77409 19.7053L10.1986 13.8438L21.2791 4.20001C21.7613 3.79107 21.1714 3.56068 20.5357 3.9677L6.84255 12.2733L0.939596 10.4993C-0.341834 10.1076 -0.369734 9.26476 1.21063 8.66958Z"/>
</mask>
<path d="M1.21063 8.66958L24.2684 0.104824C25.3386 -0.267641 26.2733 0.356334 25.9265 1.91531L25.9285 1.91339L22.0025 19.7322C21.7115 20.9955 20.9323 21.3027 19.8422 20.7075L13.8635 16.4625L10.9798 19.1389C10.6609 19.4461 10.3919 19.7053 9.77409 19.7053L10.1986 13.8438L21.2791 4.20001C21.7613 3.79107 21.1714 3.56068 20.5357 3.9677L6.84255 12.2733L0.939596 10.4993C-0.341834 10.1076 -0.369734 9.26476 1.21063 8.66958Z" fill="#202020"/>
<path d="M24.2684 0.104824L17.2562 -20.0431L17.0473 -19.9704L16.8401 -19.8935L24.2684 0.104824ZM25.9265 1.91531L5.10208 -2.71667L-10.2878 66.4732L40.7348 17.2719L25.9265 1.91531ZM25.9285 1.91339L46.7621 6.50365L61.9583 -62.4665L11.1201 -13.4432L25.9285 1.91339ZM22.0025 19.7322L42.7915 24.5203L42.8143 24.4214L42.8361 24.3224L22.0025 19.7322ZM19.8422 20.7075L7.4917 38.1022L8.51627 38.8297L9.61916 39.4318L19.8422 20.7075ZM13.8635 16.4625L26.214 -0.932192L12.0677 -10.9762L-0.648797 0.825909L13.8635 16.4625ZM10.9798 19.1389L-3.53251 3.50228L-3.67815 3.63744L-3.82125 3.7753L10.9798 19.1389ZM9.77409 19.7053L-11.5035 18.1644L-13.1601 41.0386H9.77409V19.7053ZM10.1986 13.8438L-3.80697 -2.24833L-10.4435 3.52772L-11.079 12.3029L10.1986 13.8438ZM21.2791 4.20001L7.48207 -12.0713L7.37721 -11.9823L7.27351 -11.8921L21.2791 4.20001ZM20.5357 3.9677L31.5993 22.208L31.8206 22.0737L32.0386 21.9342L20.5357 3.9677ZM6.84255 12.2733L0.702553 32.7039L9.79157 35.4354L17.9062 30.5135L6.84255 12.2733ZM0.939596 10.4993L-5.29608 30.9009L-5.24827 30.9155L-5.2004 30.9299L0.939596 10.4993ZM1.21063 8.66958L-6.21769 -11.3287L-6.26294 -11.3119L-6.30811 -11.2949L1.21063 8.66958ZM8.63895 28.6679L31.6967 20.1031L16.8401 -19.8935L-6.21769 -11.3287L8.63895 28.6679ZM31.2807 20.2528C26.9663 21.7543 18.284 22.6528 11.0261 15.838C3.73589 8.99289 4.38962 0.486402 5.10208 -2.71667L46.7509 6.54729C47.8101 1.78524 48.1699 -7.81272 40.2315 -15.2664C32.3254 -22.6899 22.6407 -21.9171 17.2562 -20.0431L31.2807 20.2528ZM40.7348 17.2719L40.7368 17.2699L11.1201 -13.4432L11.1181 -13.4412L40.7348 17.2719ZM5.09484 -2.67687L1.16884 15.1419L42.8361 24.3224L46.7621 6.50365L5.09484 -2.67687ZM1.21342 14.9441C1.74529 12.6348 4.09217 5.11507 12.691 1.36344C21.1273 -2.3173 28.1144 0.918032 30.0652 1.98314L9.61916 39.4318C12.6601 41.0921 20.5819 44.4714 29.7531 40.4701C39.0867 36.3978 41.9687 28.0929 42.7915 24.5203L1.21342 14.9441ZM32.1927 3.31275L26.214 -0.932192L1.51302 33.8573L7.4917 38.1022L32.1927 3.31275ZM-0.648797 0.825909L-3.53251 3.50228L25.4921 34.7755L28.3758 32.0992L-0.648797 0.825909ZM-3.82125 3.7753C-4.31611 4.25204 -2.54425 2.38478 0.0682737 0.922275C3.35814 -0.919406 6.78182 -1.62805 9.77409 -1.62805V41.0386C13.3842 41.0386 17.2513 40.2004 20.9098 38.1523C22.531 37.2447 23.7464 36.3008 24.5293 35.638C24.9156 35.3109 25.2241 35.0283 25.4204 34.8449C25.6026 34.6748 25.763 34.5197 25.7808 34.5025L-3.82125 3.7753ZM31.0517 21.2462L31.4762 15.3847L-11.079 12.3029L-11.5035 18.1644L31.0517 21.2462ZM24.2041 29.9359L35.2846 20.2921L7.27351 -11.8921L-3.80697 -2.24833L24.2041 29.9359ZM35.0761 20.4713C36.5143 19.2517 42.4448 14.0046 42.7757 4.69139C43.2276 -8.02939 33.6911 -14.5126 28.3211 -16.3763C23.3422 -18.1042 18.9878 -17.6117 16.5389 -17.0895C13.7021 -16.4846 11.1769 -15.3715 9.03282 -13.9988L32.0386 21.9342C30.2124 23.1034 27.9994 24.0926 25.4369 24.639C23.2623 25.1027 19.1444 25.6021 14.3322 23.932C9.1288 22.1262 -0.310874 15.7518 0.135894 3.17651C0.461598 -5.99116 6.28496 -11.0562 7.48207 -12.0713L35.0761 20.4713ZM9.4721 -14.2726L-4.22106 -5.967L17.9062 30.5135L31.5993 22.208L9.4721 -14.2726ZM12.9825 -8.15738L7.07959 -9.93139L-5.2004 30.9299L0.702553 32.7039L12.9825 -8.15738ZM7.17527 -9.90239C8.55222 -9.48153 11.5458 -8.39552 14.55 -5.67118C17.8451 -2.68302 22.0024 3.29567 21.2475 11.5936C20.5629 19.1188 16.2261 23.6399 14.0986 25.4395C11.8067 27.3781 9.68688 28.2734 8.72937 28.634L-6.30811 -11.2949C-8.05581 -10.6367 -10.7647 -9.41281 -13.4559 -7.13651C-15.9826 -4.99928 -20.5287 -0.131339 -21.2437 7.72792C-22.0289 16.3599 -17.7232 22.6599 -14.1118 25.9349C-10.7914 28.946 -7.31374 30.2842 -5.29608 30.9009L7.17527 -9.90239Z" fill="white" mask="url(#path-1-inside-1_510_1149)"/>
</svg>
