<svg width="24" height="24" viewBox="0 0 24 24" fill="none" xmlns="http://www.w3.org/2000/svg">
<path fill-rule="evenodd" clip-rule="evenodd" d="M3.21063 17.4062C2.28749 15.8195 1.802 14.0194 1.80252 12.1758H1.8026C1.805 6.40734 6.53635 1.71429 12.3497 1.71429C15.1713 1.71556 17.8194 2.80514 19.8106 4.78254C21.8021 6.76012 22.8982 9.38867 22.8971 12.184C22.8946 17.9527 18.1629 22.646 12.3502 22.646H12.3455C10.5848 22.6459 8.85203 22.2082 7.30555 21.3728L1.71423 22.8275L3.21063 17.4062ZM9.0068 7.17389C9.20128 7.1818 9.41651 7.1909 9.62103 7.64192V7.642C9.76048 7.94967 9.99489 8.52267 10.1821 8.98029C10.3208 9.31926 10.4335 9.59493 10.4627 9.65258C10.5308 9.78806 10.5764 9.94626 10.4853 10.1271C10.4716 10.1543 10.4589 10.18 10.4467 10.2046C10.3785 10.3428 10.3283 10.4444 10.2127 10.5788C10.167 10.6317 10.1196 10.6888 10.0723 10.7459C9.97843 10.8592 9.88457 10.9725 9.803 11.0532C9.66611 11.1882 9.52391 11.335 9.68317 11.6058C9.84243 11.877 10.3903 12.7636 11.2019 13.4816C12.0737 14.2529 12.8311 14.5791 13.2157 14.7447C13.2913 14.7773 13.3524 14.8036 13.3973 14.8259C13.6702 14.9614 13.8295 14.9389 13.9887 14.7578C14.148 14.5771 14.6708 13.9672 14.8529 13.6964C15.0349 13.4251 15.2169 13.4702 15.4672 13.5605C15.7174 13.6509 17.0595 14.3063 17.3326 14.4417C17.3857 14.4681 17.4354 14.4919 17.4815 14.514C17.6721 14.6052 17.8009 14.6669 17.8559 14.7578C17.9241 14.8711 17.9241 15.4132 17.6965 16.0456C17.4691 16.6781 16.3545 17.2881 15.8539 17.3332C15.8058 17.3375 15.758 17.3431 15.7088 17.3489C15.2462 17.4029 14.6625 17.4712 12.5781 16.6556C10.014 15.6523 8.32331 13.1661 7.97359 12.6519C7.94485 12.6096 7.92517 12.5807 7.9148 12.567L7.91184 12.5631C7.76489 12.3682 6.80017 11.0889 6.80017 9.76544C6.80017 8.51816 7.41797 7.86429 7.70232 7.56334C7.72178 7.54274 7.73968 7.5238 7.75571 7.50643C8.00574 7.23555 8.30154 7.16759 8.4836 7.16759C8.49546 7.16759 8.50733 7.16759 8.51919 7.16759C8.68914 7.16756 8.85793 7.16753 9.0068 7.17389Z" fill="white"/>
</svg>
